<svg xmlns="http://www.w3.org/2000/svg" xmlns:xlink="http://www.w3.org/1999/xlink" width="100" height="100" viewBox="0 0 100 100">
  <defs>
    <clipPath id="clip-path">
      <rect id="Rectangle_78" data-name="Rectangle 78" width="49.205" height="49.434" fill="#474747"/>
    </clipPath>
  </defs>
  <g id="Group_561" data-name="Group 561" transform="translate(-259 -1035)">
    <g id="Ellipse_46" data-name="Ellipse 46" transform="translate(259 1035)" fill="#fff" stroke="#474747" stroke-width="5">
      <circle cx="50" cy="50" r="50" stroke="none"/>
      <circle cx="50" cy="50" r="47.5" fill="none"/>
    </g>
    <g id="Group_376" data-name="Group 376" transform="translate(282.59 1058.066)">
      <g id="Group_216" data-name="Group 216" clip-path="url(#clip-path)">
        <path id="Path_151" data-name="Path 151" d="M285.721,115.572a6.547,6.547,0,0,0,2.637,1.519l.091.03.149.048c.085.026.17.052.257.077l.01,0c.1.029.2.056.307.083l.048.012q.145.037.294.071l.021,0q.332.075.68.136l.025,0q.168.029.34.054h.009q.181.027.365.049h0q.169.02.34.037l.068.007q.158.015.317.027l.037,0q.175.013.352.021l.08,0,.278.01.1,0c.118,0,.236,0,.354,0s.237,0,.355,0l.1,0,.278-.01.08,0q.177-.009.352-.021l.038,0,.315-.027.07-.007c.113-.011.225-.023.336-.037h.005q.183-.022.362-.049l.014,0q.168-.025.334-.054l.029,0q.346-.06.677-.135l.024-.006q.147-.033.29-.07l.05-.013q.155-.04.306-.082l.013,0c.086-.025.171-.05.255-.076l.147-.047.094-.031a6.551,6.551,0,0,0,2.636-1.518.551.551,0,0,1,.063-.053,2.025,2.025,0,0,0,.59-1.349,1.786,1.786,0,0,0-.313-.979,8.569,8.569,0,0,1-2.815,1.442l-.059.019c-.107.034-.215.066-.325.1l-.086.024-.231.062-.15.038-.253.059-.211.046-.132.027q-.182.036-.367.069l-.1.017-.217.035-.13.019c-.11.016-.221.031-.333.044l-.168.02-.191.021q-.156.016-.315.029l-.143.01-.271.018-.118.007q-.188.009-.378.015l-.1,0c-.136,0-.273.005-.41.005s-.274,0-.41-.005l-.1,0q-.19-.005-.379-.015l-.118-.007-.273-.018-.141-.01c-.106-.009-.211-.019-.317-.029l-.188-.02-.173-.021q-.165-.02-.326-.044l-.135-.02-.215-.034-.111-.02q-.178-.031-.352-.066l-.137-.028-.2-.042-.266-.063-.148-.038-.231-.062-.087-.024c-.109-.031-.217-.064-.323-.1l-.061-.019a8.56,8.56,0,0,1-2.813-1.442,1.784,1.784,0,0,0-.314.979,2.022,2.022,0,0,0,.586,1.345.568.568,0,0,1,.068.058" transform="translate(-251.488 -99.857)" fill="#474747"/>
        <path id="Path_152" data-name="Path 152" d="M285.723,85.289a6.53,6.53,0,0,0,2.623,1.514l.122.04.124.04q.287.089.591.167l.027.007q.157.04.319.077h0q.338.076.692.138l.012,0q.518.089,1.065.144l.063.006q.162.015.325.028l.031,0q.176.013.354.022l.078,0,.279.01.1,0c.118,0,.236,0,.355,0s.237,0,.355,0l.1,0,.278-.01.08,0q.177-.009.353-.021l.034,0q.161-.012.321-.027l.066-.006c.24-.024.476-.053.708-.087h0q.176-.026.348-.056l.018,0q.352-.061.688-.137l.007,0q.158-.036.313-.075l.032-.008q.3-.077.589-.167l.123-.039.124-.041a6.535,6.535,0,0,0,2.622-1.513.582.582,0,0,1,.062-.053,2.024,2.024,0,0,0,.59-1.349,1.786,1.786,0,0,0-.313-.979,8.578,8.578,0,0,1-2.822,1.445l-.043.014c-.111.035-.223.069-.337.1l-.066.018-.254.068-.138.035q-.139.034-.28.066l-.181.039-.146.03q-.166.033-.334.063l-.127.022-.212.034-.139.02q-.16.023-.323.043l-.173.021-.189.02q-.157.016-.316.029l-.141.01-.273.018-.118.007q-.188.009-.379.015l-.1,0c-.136,0-.273.005-.41.005s-.274,0-.41-.005l-.1,0q-.19-.005-.379-.015L291.877,85l-.274-.018-.14-.01q-.16-.013-.318-.029l-.187-.02-.177-.021q-.16-.02-.318-.042l-.142-.021-.21-.033-.135-.024q-.164-.029-.325-.061l-.149-.031-.18-.039-.281-.066-.138-.035-.252-.067-.068-.019c-.113-.032-.224-.066-.334-.1l-.047-.015a8.567,8.567,0,0,1-2.819-1.444,1.784,1.784,0,0,0-.314.979,2.022,2.022,0,0,0,.587,1.345.586.586,0,0,1,.067.057" transform="translate(-251.49 -73.142)" fill="#474747"/>
        <path id="Path_153" data-name="Path 153" d="M292.882,178.346c4.234,0,7.812-1.653,7.812-3.61a1.785,1.785,0,0,0-.314-.978,8.56,8.56,0,0,1-2.805,1.44l-.078.025c-.1.03-.2.06-.295.089l-.128.035-.2.053-.166.042-.178.042q-.143.033-.288.064l-.113.023q-.2.041-.413.077l-.057.01-.226.036-.115.017q-.174.025-.351.047l-.158.019-.195.021-.312.029-.146.011-.268.017-.121.007q-.188.009-.378.015l-.1,0c-.136,0-.273.005-.41.005s-.274,0-.41-.005l-.1,0q-.19-.005-.378-.015l-.12-.007-.269-.018-.145-.011c-.1-.008-.209-.018-.313-.029l-.194-.021-.16-.019q-.175-.021-.347-.046l-.118-.017-.224-.036-.065-.011q-.2-.035-.4-.075l-.115-.024-.285-.063-.18-.043-.167-.042-.2-.053-.132-.036c-.1-.028-.194-.057-.29-.087l-.082-.026a8.554,8.554,0,0,1-2.8-1.439,1.783,1.783,0,0,0-.314.978c0,1.957,3.577,3.611,7.811,3.611" transform="translate(-251.491 -153.289)" fill="#474747"/>
        <path id="Path_154" data-name="Path 154" d="M285.726,145.854a6.547,6.547,0,0,0,2.637,1.519l.091.03.149.048c.085.026.17.052.257.077l.01,0c.1.029.2.056.307.083l.048.012q.145.037.294.071l.021,0q.332.075.68.136l.025,0q.168.029.34.054h.009q.181.027.365.049h0q.169.02.34.037l.068.007c.105.01.211.019.318.027l.037,0q.175.013.352.021l.08,0,.278.01.1,0c.118,0,.236,0,.354,0s.237,0,.355,0l.1,0,.278-.01.08,0q.177-.009.352-.021l.038,0q.159-.012.315-.027l.07-.007c.113-.011.225-.023.336-.037h.005q.183-.022.362-.049l.014,0q.168-.025.334-.054l.029,0q.346-.06.677-.135l.024-.006q.147-.033.29-.07l.05-.013q.155-.04.306-.082l.013,0c.086-.025.171-.05.255-.076l.147-.047.094-.031a6.551,6.551,0,0,0,2.636-1.518.551.551,0,0,1,.063-.053,2.025,2.025,0,0,0,.59-1.349,1.784,1.784,0,0,0-.314-.978,8.559,8.559,0,0,1-2.805,1.44l-.078.025c-.1.03-.2.06-.295.089l-.128.035-.2.053-.166.042-.178.042q-.143.033-.288.064l-.113.023q-.2.041-.413.077l-.057.01-.226.036-.115.017q-.174.025-.351.047l-.158.019-.195.021-.312.029-.146.011-.268.017-.121.007q-.188.009-.378.015l-.1,0c-.136,0-.273.005-.41.005s-.274,0-.41-.005l-.1,0q-.19-.005-.378-.015l-.12-.007-.269-.018-.145-.011q-.157-.013-.313-.029l-.194-.021-.16-.019q-.175-.021-.347-.046l-.118-.017-.224-.036-.065-.011q-.2-.035-.405-.075l-.115-.024-.285-.063-.181-.043-.167-.042-.2-.053-.132-.036c-.1-.028-.194-.057-.29-.087l-.082-.026a8.556,8.556,0,0,1-2.8-1.439,1.784,1.784,0,0,0-.314.978,2.022,2.022,0,0,0,.586,1.345.653.653,0,0,1,.067.058" transform="translate(-251.493 -126.573)" fill="#474747"/>
        <path id="Path_155" data-name="Path 155" d="M353.692,34.114a.592.592,0,0,0,.147-.4.535.535,0,0,0-.124-.354.785.785,0,0,0-.4-.229v1.206a.659.659,0,0,0,.377-.221" transform="translate(-311.697 -29.227)" fill="#474747"/>
        <path id="Path_156" data-name="Path 156" d="M285.721,55a6.334,6.334,0,0,0,2.434,1.448l.022.008.153.053.15.05.1.032q.294.092.6.171l.012,0q.494.125,1.026.218h0c.347.06.7.108,1.071.145l.06.006q.163.016.327.028l.029,0q.176.013.355.022l.077,0,.28.01.1,0c.118,0,.236,0,.355,0s.237,0,.355,0l.1,0,.279-.01.078,0q.178-.009.354-.022l.032,0q.163-.012.323-.028l.064-.006c.364-.036.721-.084,1.066-.144l.009,0c.352-.061.693-.134,1.021-.217l.016,0q.31-.079.6-.171l.1-.032.152-.05.15-.052.03-.011A6.338,6.338,0,0,0,300.038,55a.54.54,0,0,1,.06-.051,2.026,2.026,0,0,0,.592-1.352,1.785,1.785,0,0,0-.314-.978,8.56,8.56,0,0,1-2.8,1.439l-.082.026c-.095.029-.19.058-.286.086l-.138.038-.194.052-.169.043-.168.039q-.148.035-.3.066l-.109.022q-.209.042-.424.079l-.047.008-.228.036-.112.016q-.176.025-.354.047l-.156.019-.2.021-.311.029-.147.011-.267.017-.121.007q-.188.009-.378.015l-.1,0c-.136,0-.273.005-.41.005s-.274,0-.41-.005l-.1,0q-.19-.005-.378-.015l-.12-.007L291.6,54.7l-.146-.011c-.1-.009-.209-.018-.312-.029l-.195-.021-.158-.019q-.177-.022-.35-.047l-.115-.017-.226-.036-.056-.01q-.21-.036-.415-.077l-.111-.023q-.15-.031-.3-.066l-.17-.04-.169-.043-.192-.051-.142-.04c-.1-.027-.189-.056-.282-.085l-.086-.027a8.554,8.554,0,0,1-2.8-1.439,1.784,1.784,0,0,0-.314.979,2.024,2.024,0,0,0,.589,1.348.538.538,0,0,1,.065.055" transform="translate(-251.488 -46.424)" fill="#474747"/>
        <path id="Path_157" data-name="Path 157" d="M285.721,5.013a6.547,6.547,0,0,0,2.638,1.519l.089.029.151.049c.084.026.168.052.254.076l.013,0q.151.043.306.082l.049.012q.145.037.293.07l.021,0q.332.075.68.136l.025,0q.168.029.34.054h.009q.181.027.365.049h0c.112.014.226.026.34.037l.069.007q.158.015.317.027l.037,0q.175.013.352.021l.08,0,.278.01.1,0c.118,0,.236,0,.354,0s.237,0,.354,0l.1,0,.278-.01.08,0q.177-.009.352-.021l.039,0q.158-.012.315-.027l.071-.007q.169-.017.335-.037h.005q.183-.022.362-.049l.014,0q.168-.025.334-.054l.029,0q.346-.06.677-.135l.024-.006q.146-.033.29-.07l.051-.013q.154-.039.3-.082l.017,0c.085-.024.169-.05.252-.075l.149-.048.092-.031a6.555,6.555,0,0,0,2.637-1.519.555.555,0,0,1,.063-.054,2.024,2.024,0,0,0,.589-1.348c0-1.957-3.577-3.61-7.812-3.61s-7.812,1.653-7.812,3.61a2.022,2.022,0,0,0,.586,1.344.548.548,0,0,1,.068.058" transform="translate(-251.489)" fill="#474747"/>
        <path id="Path_158" data-name="Path 158" d="M12.362,272.771c-1.012-2.354-4.6-8.382-6.091-9.812h0c-.7-.672-1.136-.972-1.4-.972a.6.6,0,0,0-.275.08c-1.212.6-4.239,2.693-4.522,3.285-.156.327-.057.612.182,1.226A8.994,8.994,0,0,1,.633,267.7a23.878,23.878,0,0,1,.3,6.595,18.186,18.186,0,0,0,.354,6.125c.022.063.048.141.292.141a2.955,2.955,0,0,0,1.3-.439c.612-.357,1.786-.917,3.146-1.565,1.423-.678,3.036-1.447,4.344-2.146,2.017-1.077,2.3-1.461,2.333-1.528a2.9,2.9,0,0,0-.336-2.1l0-.008m-5.486,1.873a1.189,1.189,0,1,1,1.053-1.315,1.193,1.193,0,0,1-1.053,1.315" transform="translate(0 -231.127)" fill="#474747"/>
        <path id="Path_159" data-name="Path 159" d="M105.568,233.849c-.1-1.4-2.159-1.912-3.516-1.912a4.738,4.738,0,0,0-.637.04c-3.041.42-7.632,2.856-10.207,4.9a2.273,2.273,0,0,1-.5.655,5.086,5.086,0,0,1-3.392.924,32.051,32.051,0,0,1-7.583-1.3l-.392-.1a.552.552,0,0,1,.277-1.068l.4.106a42.117,42.117,0,0,0,5.218,1.116c3.021.4,4.241-.048,4.732-.491a1.2,1.2,0,0,0,.389-.759s0-.009,0-.013c.007-.055.011-.111.013-.17,0-.008,0-.017,0-.025,0-.059,0-.121-.005-.184,0-.015,0-.03,0-.046-.005-.065-.013-.131-.023-.2h0c-.488-3.091-9.136-4.8-14.927-4.8a14.679,14.679,0,0,0-2.639.187c-2.478.49-5.907,2.491-8.411,3.952l-.471.275,0,.005a57.539,57.539,0,0,1,5.628,9.156,16.935,16.935,0,0,1,5.814-1.176,16.424,16.424,0,0,1,5.268,1.031,17.353,17.353,0,0,0,5.669,1.08c.372,0,.756-.014,1.142-.043,1.982-.147,6.532-2.113,10.818-4.676,5.167-3.089,7.406-5.469,7.333-6.459" transform="translate(-56.365 -203.364)" fill="#474747"/>
        <path id="Path_160" data-name="Path 160" d="M150.883,168.261c4.234,0,7.812-1.653,7.812-3.61a1.786,1.786,0,0,0-.313-.979,8.56,8.56,0,0,1-2.806,1.44l-.077.024c-.1.031-.2.061-.3.09l-.123.034-.2.054-.165.042-.186.044q-.139.032-.28.062l-.115.024q-.2.04-.406.076l-.063.011-.224.036-.117.017q-.173.025-.349.047l-.158.019-.195.021-.312.029-.145.011-.268.018-.121.007q-.188.009-.378.015l-.1,0c-.136,0-.273.005-.41.005s-.274,0-.41-.005l-.1,0q-.19-.005-.378-.015l-.12-.007-.27-.018-.144-.011q-.158-.013-.314-.029l-.191-.02-.165-.02q-.171-.021-.339-.045l-.125-.018-.22-.035-.087-.015q-.192-.033-.379-.071l-.126-.026-.237-.052-.227-.054-.156-.039-.22-.059-.1-.026c-.108-.031-.214-.063-.319-.1l-.066-.021a8.561,8.561,0,0,1-2.811-1.442,1.784,1.784,0,0,0-.313.978c0,1.957,3.577,3.61,7.811,3.61" transform="translate(-126.219 -144.392)" fill="#474747"/>
        <path id="Path_161" data-name="Path 161" d="M143.723,135.766a6.534,6.534,0,0,0,2.623,1.514l.122.04.125.04c.191.059.387.115.588.167l.032.008q.155.039.313.076h.006q.336.076.689.137l.017,0q.173.03.35.056h0q.348.051.709.087l.065.006c.106.01.213.019.321.027l.035,0q.175.013.353.021l.079,0,.279.01.1,0c.118,0,.236,0,.355,0s.237,0,.354,0l.1,0,.278-.01.08,0q.177-.009.352-.021l.038,0q.159-.012.316-.027l.07-.007c.113-.011.225-.023.336-.037h0q.183-.022.363-.049l.013,0q.169-.025.336-.054l.028,0q.346-.06.678-.135l.023-.005q.148-.034.292-.07l.049-.012q.155-.04.307-.083l.009,0c.087-.025.173-.051.258-.078l.146-.047.1-.032a6.548,6.548,0,0,0,2.636-1.518.555.555,0,0,1,.063-.054,2.025,2.025,0,0,0,.589-1.349,1.784,1.784,0,0,0-.313-.978,8.571,8.571,0,0,1-2.818,1.444l-.052.016c-.109.034-.218.068-.33.1l-.077.021-.241.064-.144.037q-.137.034-.276.065l-.186.04-.139.028q-.172.034-.348.065l-.115.02-.214.034-.134.02q-.163.023-.328.044l-.17.02-.19.02q-.157.016-.315.029l-.142.01-.272.018-.118.007q-.188.009-.378.015l-.1,0c-.136,0-.273.005-.41.005s-.274,0-.41-.005l-.1,0q-.19-.005-.379-.015l-.117-.007-.274-.018-.141-.01c-.106-.009-.212-.019-.317-.029l-.187-.02-.177-.021q-.16-.02-.317-.042l-.143-.021-.209-.033-.141-.025q-.161-.028-.319-.06l-.151-.031-.177-.038q-.143-.032-.282-.066l-.135-.034-.258-.069-.062-.017c-.115-.033-.227-.067-.339-.1l-.041-.013a8.57,8.57,0,0,1-2.823-1.445,1.785,1.785,0,0,0-.313.978,2.025,2.025,0,0,0,.589,1.348.607.607,0,0,1,.063.055" transform="translate(-126.218 -117.673)" fill="#474747"/>
        <path id="Path_162" data-name="Path 162" d="M143.724,105.488a6.324,6.324,0,0,0,2.421,1.443l.039.014.145.05.16.053.094.03q.3.092.609.173l.007,0c.33.084.674.157,1.029.219h0c.347.06.705.108,1.072.145l.06.006q.163.016.328.028l.028,0c.118.008.236.015.355.022l.077,0,.28.01.1,0c.118,0,.236,0,.355,0s.237,0,.354,0l.1,0,.279-.01.079,0c.118-.006.237-.013.354-.022l.032,0q.163-.012.324-.028l.063-.006c.364-.036.72-.084,1.065-.144l.01,0c.351-.061.691-.133,1.017-.216l.021-.005q.307-.078.6-.169l.11-.035.14-.047.16-.055.012,0a6.35,6.35,0,0,0,2.443-1.451.551.551,0,0,1,.062-.053,2.025,2.025,0,0,0,.591-1.35,1.784,1.784,0,0,0-.313-.979,8.577,8.577,0,0,1-2.826,1.446l-.035.011c-.113.036-.228.07-.344.1l-.055.015q-.132.037-.266.071l-.131.033q-.141.035-.285.067l-.175.037-.153.031q-.155.031-.313.059l-.146.026-.209.033-.144.021q-.157.023-.316.042l-.178.021-.186.02c-.105.011-.211.02-.317.029l-.14.01-.274.018-.117.007q-.189.01-.379.015l-.1,0c-.136,0-.273.005-.41.005s-.274,0-.411-.005l-.1,0q-.191-.005-.38-.015l-.116-.007-.276-.018-.138-.01q-.16-.013-.319-.029l-.184-.02-.184-.022q-.154-.019-.3-.041l-.153-.023-.2-.032-.173-.03-.282-.053-.165-.034-.166-.036q-.147-.033-.292-.069l-.122-.031q-.143-.037-.284-.076l-.04-.011q-.179-.051-.353-.106l-.024-.008a8.578,8.578,0,0,1-2.831-1.448,1.784,1.784,0,0,0-.313.978,2.025,2.025,0,0,0,.59,1.349.554.554,0,0,1,.062.053" transform="translate(-126.219 -90.962)" fill="#474747"/>
        <path id="Path_163" data-name="Path 163" d="M143.72,55.5a6.289,6.289,0,0,0,2.385,1.43l.085.031.121.042.19.063.069.022a13.753,13.753,0,0,0,2.729.541l.057.006q.165.016.332.028l.025,0q.177.013.356.022l.076,0,.281.01.1,0c.118,0,.236,0,.355,0s.237,0,.354,0l.1,0,.28-.01.077,0c.119-.006.237-.013.355-.022l.028,0q.165-.012.328-.028l.06-.006c.367-.037.725-.085,1.073-.145h0c.356-.062.7-.135,1.032-.219h0q.315-.08.613-.174l.086-.027.171-.056.135-.047.058-.021a6.316,6.316,0,0,0,2.408-1.438.534.534,0,0,1,.059-.051,2.027,2.027,0,0,0,.593-1.353c0-1.956-3.577-3.609-7.812-3.609s-7.811,1.653-7.811,3.609a2.027,2.027,0,0,0,.592,1.352.508.508,0,0,1,.06.051" transform="translate(-126.215 -44.538)" fill="#474747"/>
      </g>
    </g>
  </g>
</svg>
