<svg xmlns="http://www.w3.org/2000/svg" width="78" height="78" viewBox="0 0 78 78">
    <g fill="none" fill-rule="evenodd">
        <g>
            <g transform="translate(-788 -513) translate(792 517)">
                <circle cx="35" cy="35" r="37" fill="#FFF" stroke="#2D2D2D" stroke-width="4"/>
                <path fill="#000" fill-rule="nonzero" d="M52.737 20H17.214c-1.23 0-2.214.987-2.214 2.22v20.627c0 1.234.984 2.221 2.214 2.221h1.968l11.66 11.695c.837.839 1.575.543 1.575-.641V45.66c0-.197-.05-.444-.098-.641h20.467c1.23 0 2.214-.987 2.214-2.221V22.221C54.95 20.987 53.967 20 52.737 20zm-10.84 18.62h-22.76v-2.758h22.76v2.759zm8.915-5.517H19.138v-2.758h31.724v2.758h-.05zm0-4.827H19.138v-2.759h31.724v2.759h-.05z"/>
            </g>
        </g>
    </g>
</svg>
