<svg xmlns="http://www.w3.org/2000/svg" width="78" height="78" viewBox="0 0 78 78">
    <g fill="none" fill-rule="evenodd">
        <g>
            <g transform="translate(-451 -369) translate(455 373)">
                <circle cx="35" cy="35" r="37" fill="#FFF" stroke="#2D2D2D" stroke-width="4"/>
                <g fill="#000" fill-rule="nonzero">
                    <path d="M7.994 0C6.52 0 5.329 1.177 5.329 2.635v1.588H48V2.635C48 1.177 46.81 0 45.335 0H7.994zM5.329 6.335v3.158H48V6.335H5.33zm0 5.27v4.39c.53-.112 1.058-.168 1.606-.168 4.422 0 7.994 3.532 7.994 7.904 0 1.346-.34 2.598-.926 3.7h31.332c1.474 0 2.665-1.177 2.665-2.635V11.604H5.33zm29.877 3.699c1.002 0 1.928.355 2.665.934.718-.58 1.644-.934 2.664-.934 2.344 0 4.271 1.887 4.271 4.223 0 2.317-1.927 4.204-4.27 4.204-1.002 0-1.947-.355-2.665-.934-.737.58-1.663.934-2.665.934-2.343 0-4.27-1.887-4.27-4.204 0-2.336 1.927-4.223 4.27-4.223zm-28.27 1.57C3.117 16.874 0 19.957 0 23.73c0 3.775 3.118 6.858 6.935 6.858 1.512 0 2.91-.486 4.063-1.308l5.292 5.214c.416.43 1.096.43 1.53 0 .416-.412.416-1.103 0-1.514l-5.29-5.232c.83-1.121 1.34-2.504 1.34-4.018 0-3.774-3.117-6.857-6.935-6.857zm28.27.541c-1.19 0-2.135.916-2.135 2.112 0 1.177.945 2.093 2.135 2.093s2.136-.916 2.136-2.093c0-1.196-.945-2.112-2.136-2.112zm5.33 0c-.53 0-1.021.187-1.38.505.208.486.302 1.028.302 1.607 0 .56-.094 1.102-.302 1.588.359.318.85.505 1.38.505 1.19 0 2.135-.916 2.135-2.093 0-1.196-.945-2.112-2.136-2.112zm-33.6 1.57c2.664 0 4.8 2.112 4.8 4.746 0 2.635-2.136 4.747-4.8 4.747-2.665 0-4.8-2.112-4.8-4.747 0-2.634 2.135-4.746 4.8-4.746z" transform="translate(11 18.638) translate(0 .241)"/>
                </g>
            </g>
        </g>
    </g>
</svg>
