<svg xmlns="http://www.w3.org/2000/svg" width="78" height="78" viewBox="0 0 78 78">
    <g fill="none" fill-rule="evenodd">
        <g>
            <g transform="translate(-788 -369) translate(792 373)">
                <circle cx="35" cy="35" r="37" fill="#FFF" stroke="#2D2D2D" stroke-width="4"/>
                <g fill="#000" fill-rule="nonzero">
                    <path d="M17.6 30.285l-4.532.537c-.206 0-.371.041-.536.041-1.236 0-2.43-.537-3.254-1.487-.824-.95-1.236-2.189-1.071-3.428l.535-4.544c.124-.95.577-1.9 1.236-2.56l14.46-14.498-19.341-.073C2.335 4.263.088 6.493.078 9.255v.005L.013 33.987C.006 36.748 2.24 38.993 5 39h24.727c2.761 0 5-2.239 5-5v-.019l-.073-19.433-14.5 14.498c-.66.702-1.566 1.156-2.555 1.239z" transform="translate(18 15)"/>
                    <path d="M33.327 11.299L27.742 5.673 15.6 17.774 21.226 23.4zM38.623 4.316L34.66.37c-.495-.493-1.28-.493-1.734 0l-2.435 2.425 5.738 5.714 2.435-2.425c.455-.493.455-1.275-.04-1.768zM11.565 21.579c-.21.21-.335.462-.377.757l-.545 4.625c-.083.8.587 1.514 1.383 1.388l4.607-.547c.293-.042.544-.168.753-.378l1.76-1.766-5.864-5.803-1.717 1.724z" transform="translate(18 15)"/>
                </g>
            </g>
        </g>
    </g>
</svg>
