<svg xmlns="http://www.w3.org/2000/svg" width="78" height="78" viewBox="0 0 78 78">
    <g fill="none" fill-rule="evenodd">
        <g>
            <g transform="translate(-451 -513) translate(455 517)">
                <circle cx="35" cy="35" r="37" fill="#FFF" stroke="#2D2D2D" stroke-width="4"/>
                <g fill="#000">
                    <path fill-rule="nonzero" d="M7.994 0C6.52 0 5.329 1.177 5.329 2.635v1.588H48V2.635C48 1.177 46.81 0 45.335 0H7.994zM5.329 6.335v3.158H48V6.335H5.33zm0 5.27v4.39c.53-.112 1.058-.168 1.606-.168 4.422 0 7.994 3.532 7.994 7.904 0 1.346-.34 2.598-.926 3.7h31.332c1.474 0 2.665-1.177 2.665-2.635V11.604H5.33zm29.877 3.699c1.002 0 1.928.355 2.665.934.718-.58 1.644-.934 2.664-.934 2.344 0 4.271 1.887 4.271 4.223 0 2.317-1.927 4.204-4.27 4.204-1.002 0-1.947-.355-2.665-.934-.737.58-1.663.934-2.665.934-2.343 0-4.27-1.887-4.27-4.204 0-2.336 1.927-4.223 4.27-4.223zm0 2.111c-1.19 0-2.135.916-2.135 2.112 0 1.177.945 2.093 2.135 2.093s2.136-.916 2.136-2.093c0-1.196-.945-2.112-2.136-2.112zm5.33 0c-.53 0-1.021.187-1.38.505.208.486.302 1.028.302 1.607 0 .56-.094 1.102-.302 1.588.359.318.85.505 1.38.505 1.19 0 2.135-.916 2.135-2.093 0-1.196-.945-2.112-2.136-2.112z" transform="translate(11 21)"/>
                    <path d="M6.733 17.092c3.732 0 6.734 3.001 6.734 6.733 0 3.732-3.002 6.734-6.734 6.734C3.002 30.559 0 27.516 0 23.825s3.002-6.733 6.733-6.733zm4.138 3.732l-7.099 7.139c.852.608 1.866.973 3.002.973 2.799 0 5.11-2.271 5.11-5.11-.04-1.096-.405-2.15-1.013-3.002zm-4.178-2.07c-2.758-.04-5.07 2.272-5.07 5.071 0 1.095.365 2.15.973 3.002l7.098-7.099c-.851-.608-1.865-.973-3.001-.973z" transform="translate(11 21)"/>
                </g>
            </g>
        </g>
    </g>
</svg>
