<svg xmlns="http://www.w3.org/2000/svg" width="10" height="10" viewBox="0 0 10 10">
    <g fill="none" fill-rule="evenodd">
        <g fill="#A8A8A8" fill-rule="nonzero">
            <g>
                <path d="M5 0C2.239 0 0 2.239 0 5s2.239 5 5 5 5-2.239 5-5C9.997 2.24 7.76.003 5 0zm0 9.167C2.699 9.167.833 7.3.833 5 .833 2.699 2.7.833 5 .833 7.301.833 9.167 2.7 9.167 5 9.164 7.3 7.3 9.164 5 9.167z" transform="translate(-460 -1209) translate(460 1209)"/>
                <path d="M5.417 1.667c-.23 0-.417.186-.417.416V5H2.083c-.23 0-.416.187-.416.417 0 .23.186.416.416.416h3.334c.23 0 .416-.186.416-.416V2.083c0-.23-.186-.416-.416-.416z" transform="translate(-460 -1209) translate(460 1209)"/>
            </g>
        </g>
    </g>
</svg>
