<svg xmlns="http://www.w3.org/2000/svg" width="548" height="398" viewBox="0 0 548 398">
    <g fill="none" fill-rule="evenodd">
        <g>
            <g>
                <path fill="#FFF" d="M211.189 35.66h.747C207.806 24.215 196.707 16 183.623 16c-13.083 0-24.183 8.214-28.314 19.66h-2.496c-9.285 0-16.813 7.33-16.813 16.37V56h92v-3.97c0-9.04-7.526-16.37-16.811-16.37" transform="translate(-445 -529) translate(447 529)"/>
                <path stroke="#003959" stroke-linecap="round" stroke-linejoin="round" stroke-width="2.423" d="M211.189 35.66h.747C207.806 24.215 196.707 16 183.623 16c-13.083 0-24.183 8.214-28.314 19.66h-2.496c-9.285 0-16.813 7.33-16.813 16.37V56h92v-3.97c0-9.04-7.526-16.37-16.811-16.37z" transform="translate(-445 -529) translate(447 529)"/>
                <path fill="#D5D5EA" d="M208.939 36.746h.536C206.512 28.159 198.549 22 189.165 22c-9.386 0-17.349 6.16-20.313 14.746h-1.79C160.4 36.746 155 42.242 155 49.024V52h66v-2.976c0-6.782-5.4-12.278-12.061-12.278" transform="translate(-445 -529) translate(447 529)"/>
                <path fill="#FFF" d="M75.189 353.661h.747C71.806 342.215 60.706 334 47.623 334c-13.083 0-24.183 8.215-28.314 19.661h-2.496C7.528 353.661 0 360.99 0 370.033V374h92v-3.967c0-9.044-7.526-16.372-16.811-16.372" transform="translate(-445 -529) translate(447 529)"/>
                <path stroke="#003959" stroke-linecap="round" stroke-linejoin="round" stroke-width="2.423" d="M75.189 353.661h.747C71.806 342.215 60.706 334 47.623 334c-13.083 0-24.183 8.215-28.314 19.661h-2.496C7.528 353.661 0 360.99 0 370.033V374h92v-3.967c0-9.044-7.526-16.372-16.811-16.372z" transform="translate(-445 -529) translate(447 529)"/>
                <path fill="#D5D5EA" d="M72.939 354.746h.536C70.512 346.162 62.549 340 53.163 340c-9.384 0-17.348 6.162-20.311 14.746h-1.79C24.4 354.746 19 360.242 19 367.023V370h66v-2.977c0-6.781-5.4-12.277-12.061-12.277" transform="translate(-445 -529) translate(447 529)"/>
                <path fill="#FFF" d="M452.186 158.661h.75C448.805 147.215 437.706 139 424.622 139c-13.082 0-24.18 8.215-28.314 19.661h-2.494c-9.287 0-16.814 7.33-16.814 16.37V179h92v-3.968c0-9.041-7.527-16.37-16.814-16.37" transform="translate(-445 -529) translate(447 529)"/>
                <path stroke="#003959" stroke-linecap="round" stroke-linejoin="round" stroke-width="2.423" d="M452.186 158.661h.75C448.805 147.215 437.706 139 424.622 139c-13.082 0-24.18 8.215-28.314 19.661h-2.494c-9.287 0-16.814 7.33-16.814 16.37V179h92v-3.968c0-9.041-7.527-16.37-16.814-16.37z" transform="translate(-445 -529) translate(447 529)"/>
                <path fill="#D5D5EA" d="M449.939 160.745h.537C447.512 152.161 439.551 146 430.165 146s-17.349 6.16-20.313 14.745h-1.79c-6.663 0-12.062 5.496-12.062 12.278V176h66v-2.977c0-6.782-5.4-12.278-12.061-12.278" transform="translate(-445 -529) translate(447 529)"/>
                <path stroke="#000" stroke-linecap="round" stroke-linejoin="round" stroke-width="2.423" d="M298 331L298 337 292 337" transform="translate(-445 -529) translate(447 529)"/>
                <path stroke="#000" stroke-dasharray="7.689 7.689" stroke-linecap="round" stroke-linejoin="round" stroke-width="2.423" d="M281 337L129 337" transform="translate(-445 -529) translate(447 529)"/>
                <path stroke="#000" stroke-linecap="round" stroke-linejoin="round" stroke-width="2.423" d="M124 337L118 337 118 331" transform="translate(-445 -529) translate(447 529)"/>
                <path stroke="#003959" stroke-dasharray="7.553 7.553" stroke-linecap="round" stroke-linejoin="round" stroke-width="2.423" d="M118 320.445V187.158c0-3.953 3.191-7.158 7.125-7.158h165.75c3.935 0 7.125 3.205 7.125 7.158V326" transform="translate(-445 -529) translate(447 529)"/>
                <path fill="#00B1F2" d="M356 290H176V141.107c0-3.925 3.188-7.107 7.125-7.107h165.75c3.935 0 7.125 3.182 7.125 7.107V290" transform="translate(-445 -529) translate(447 529)"/>
                <path fill="#FFF" d="M320 315H140V166.107c0-3.925 3.19-7.107 7.126-7.107h165.748c3.936 0 7.126 3.182 7.126 7.107V315" transform="translate(-445 -529) translate(447 529)"/>
                <path stroke="#003959" stroke-linecap="round" stroke-linejoin="round" stroke-width="2.423" d="M320 315H140V166.107c0-3.925 3.19-7.107 7.126-7.107h165.748c3.936 0 7.126 3.182 7.126 7.107V315z" transform="translate(-445 -529) translate(447 529)"/>
                <path fill="#F2F7FD" d="M320 189H140v-22.958c0-3.888 3.19-7.042 7.126-7.042h165.748c3.936 0 7.126 3.154 7.126 7.042V189" transform="translate(-445 -529) translate(447 529)"/>
                <path stroke="#003959" stroke-linecap="round" stroke-linejoin="round" stroke-width="2.423" d="M320 190H140v-22.958c0-3.888 3.19-7.042 7.126-7.042h165.748c3.936 0 7.126 3.154 7.126 7.042V190zm-117 79l8 22-8-22zm9-1l7 20-7-20zm7 3l-20 7 20-7zm4 8l-19 7 19-7z" transform="translate(-445 -529) translate(447 529)"/>
                <path stroke="#000" stroke-linecap="round" stroke-width="2.704" d="M237 239l16 15m-16 1l16-16m24 0l16 15m-16 0l16-16" transform="translate(-445 -529) translate(447 529)"/>
                <path fill="#F2F7FD" d="M235.002 306c-.194-16.375 13.08-29.806 29.648-29.998 16.567-.192 30.156 12.928 30.35 29.302l-59.998.696" transform="translate(-445 -529) translate(447 529)"/>
                <path stroke="#000" stroke-linecap="round" stroke-linejoin="round" stroke-width="2.423" d="M235.002 306c-.194-16.375 13.08-29.806 29.648-29.998 16.567-.192 30.156 12.928 30.35 29.302l-59.998.696z" transform="translate(-445 -529) translate(447 529)"/>
                <path fill="#F74747" d="M279.203 327c-4.915.056-8.944-3.872-9.002-8.776L270 301.207l17.799-.207.2 17.016c.057 4.903-3.88 8.925-8.796 8.983" transform="translate(-445 -529) translate(447 529)"/>
                <path stroke="#003959" stroke-linecap="round" stroke-linejoin="round" stroke-width="2.423" d="M279.203 327h0c-4.915.056-8.944-3.872-9.002-8.776L270 301.207l17.799-.207.2 17.016c.057 4.903-3.88 8.925-8.796 8.983z" transform="translate(-445 -529) translate(447 529)"/>
                <path fill="#FFCA04" d="M162 175c0 2.21-1.79 4-4 4s-4-1.79-4-4 1.79-4 4-4 4 1.79 4 4" transform="translate(-445 -529) translate(447 529)"/>
                <path fill="#F74747" d="M181 175c0 2.21-1.79 4-4 4s-4-1.79-4-4 1.79-4 4-4 4 1.79 4 4" transform="translate(-445 -529) translate(447 529)"/>
                <path fill="#B1DAFF" d="M200 175c0 2.21-1.79 4-4 4s-4-1.79-4-4 1.79-4 4-4 4 1.79 4 4" transform="translate(-445 -529) translate(447 529)"/>
                <path fill="#003959" d="M157.998 169c-3.306 0-5.998 2.69-5.998 6 0 3.308 2.692 6 5.998 6 3.31 0 6.002-2.692 6.002-6 0-3.31-2.692-6-6.002-6zm.001 2c2.212 0 4.001 1.79 4.001 4s-1.79 4-4 4-4-1.79-4-4 1.79-4 4-4zM176.998 169c-3.306 0-5.998 2.69-5.998 6 0 3.308 2.692 6 5.998 6 3.31 0 6.002-2.692 6.002-6 0-3.31-2.692-6-6.002-6zm.001 2c2.21 0 4.001 1.79 4.001 4s-1.79 4-4 4-4-1.79-4-4 1.79-4 4-4zM196 169c-3.307 0-6 2.69-6 6 0 3.308 2.693 6 6 6 3.308 0 6-2.692 6-6 0-3.31-2.692-6-6-6zm0 2c2.21 0 4 1.79 4 4s-1.79 4-4 4-4-1.79-4-4 1.79-4 4-4zM123.7 124l7.3 9.537-9.698 7.463-7.302-9.537 9.7-7.463zm-37.933-12.249c-.698-2.387-.918-4.749-.667-7.085.254-2.335.999-4.579 2.236-6.73 1.24-2.15 2.982-4.089 5.23-5.813 2.901-2.226 5.627-3.687 8.18-4.38 2.553-.693 4.879-.9 6.974-.626 2.095.275 3.923.902 5.484 1.879 1.563.977 2.798 2.058 3.707 3.242 1.506 1.96 2.49 3.77 2.953 5.428.46 1.659.658 3.227.592 4.705-.066 1.48-.315 2.888-.75 4.228-.43 1.338-.813 2.636-1.144 3.897-.331 1.261-.5 2.543-.506 3.844-.006 1.305.377 2.631 1.156 3.981L121 120.65 112.724 127l-2.118-2.758c-1.226-1.851-2.018-3.58-2.377-5.188-.357-1.608-.49-3.113-.396-4.514.092-1.402.312-2.722.659-3.963.345-1.24.633-2.432.856-3.578.223-1.145.268-2.252.133-3.316-.135-1.065-.65-2.132-1.535-3.204-1.442-1.879-2.969-2.915-4.58-3.109-1.609-.192-3.23.338-4.867 1.592-1.102.847-1.888 1.79-2.356 2.83-.467 1.04-.683 2.114-.644 3.22.037 1.11.305 2.237.797 3.384.491 1.149 1.16 2.274 2.006 3.377l-9.01 6.914c-1.654-2.238-2.828-4.55-3.525-6.936zM113.946 155l7.054 1.027-.946 7.973-7.054-1.028.946-7.972zM92.5 166.49c-1.292-.75-2.375-1.698-3.249-2.843-.875-1.147-1.503-2.47-1.885-3.972-.384-1.5-.465-3.13-.247-4.89.283-2.27.812-4.124 1.593-5.561.779-1.437 1.667-2.558 2.66-3.364.995-.805 2.023-1.337 3.086-1.597 1.066-.258 2.036-.326 2.912-.205 1.454.202 2.626.568 3.515 1.097.89.53 1.631 1.138 2.222 1.823.593.685 1.078 1.418 1.458 2.203.38.785.764 1.529 1.154 2.235.39.705.857 1.347 1.402 1.926.544.58 1.261.997 2.153 1.251l1.726.24-.806 6.476-2.043-.285c-1.288-.276-2.348-.691-3.173-1.246-.824-.553-1.51-1.16-2.059-1.822-.55-.662-1.011-1.343-1.386-2.046-.375-.703-.756-1.357-1.141-1.965-.386-.606-.831-1.115-1.335-1.527-.503-.413-1.166-.658-1.988-.74-1.391-.192-2.466.023-3.223.65-.753.627-1.212 1.58-1.372 2.86-.107.863-.04 1.628.2 2.298.24.667.6 1.238 1.08 1.71.482.473 1.064.857 1.752 1.146.688.291 1.44.493 2.258.608l-.878 7.05c-1.631-.258-3.093-.76-4.386-1.51zM155.909 131l.091 6.905-6.908.095-.092-6.905 6.909-.095zm-13.14-20.003c.503-1.397 1.22-2.61 2.148-3.644.925-1.033 2.05-1.843 3.371-2.434 1.321-.589 2.802-.895 4.443-.917 2.12-.029 3.894.245 5.319.827 1.425.582 2.577 1.317 3.455 2.2.878.886 1.51 1.842 1.896 2.872.386 1.03.585 1.993.598 2.888.018 1.484-.152 2.707-.512 3.67-.36.963-.815 1.789-1.356 2.475-.546.688-1.149 1.274-1.815 1.762-.665.489-1.294.975-1.883 1.463-.593.487-1.114 1.043-1.57 1.667-.455.624-.736 1.4-.844 2.33l.024 1.76L150 128l-.027-2.085c.072-1.33.303-2.446.695-3.347.39-.903.85-1.673 1.38-2.313.53-.64 1.09-1.196 1.68-1.67.591-.47 1.138-.941 1.639-1.411.502-.47.906-.987 1.213-1.547.306-.56.437-1.257.398-2.092-.018-1.42-.369-2.465-1.049-3.137-.681-.67-1.618-.996-2.812-.98-.805.012-1.499.182-2.076.515-.578.333-1.05.772-1.415 1.317-.366.547-.634 1.184-.805 1.912-.169.73-.247 1.51-.237 2.343l-6.583.091c.008-1.667.265-3.201.768-4.599z" transform="translate(-445 -529) translate(447 529)"/>
                <path fill="#000" d="M532.712 320h-29.426c-.71 0-1.286.447-1.286 1 0 .552.577 1 1.286 1h29.426c.711 0 1.288-.448 1.288-1 0-.553-.577-1-1.288-1M494.762 320h-5.524c-.684 0-1.238.447-1.238 1 0 .553.554 1 1.238 1h5.524c.683 0 1.238-.447 1.238-1 0-.553-.555-1-1.238-1M497 330c0 .552-.577 1-1.288 1h-6.426c-.71 0-1.286-.448-1.286-1s.576-1 1.286-1h6.426c.71 0 1.288.448 1.288 1zm13 0c0 .552-.576 1-1.286 1h-6.43c-.708 0-1.284-.448-1.284-1s.576-1 1.285-1h6.429c.71 0 1.286.448 1.286 1zm10 0c0 .552-.55 1-1.234 1h-3.532c-.682 0-1.234-.448-1.234-1s.552-1 1.234-1h3.532c.684 0 1.234.448 1.234 1zM538 345c-.552 0-1 .622-1 1.388v3.221c0 .767.448 1.391 1 1.391s1-.624 1-1.391v-3.221c0-.766-.448-1.388-1-1.388M534.612 343h-3.222c-.768 0-1.39.449-1.39 1 0 .552.622 1 1.39 1h3.222c.766 0 1.388-.448 1.388-1 0-.551-.622-1-1.388-1M538 336c-.552 0-1 .622-1 1.388v3.224c0 .766.448 1.388 1 1.388s1-.622 1-1.388v-3.224c0-.766-.448-1.388-1-1.388M544.612 343h-3.222c-.768 0-1.39.448-1.39 1s.622 1 1.39 1h3.222c.766 0 1.388-.448 1.388-1s-.622-1-1.388-1M96 26c-.552 0-1 .624-1 1.39v3.222c0 .766.448 1.388 1 1.388s1-.622 1-1.388V27.39c0-.766-.448-1.39-1-1.39M92.61 24h-3.222c-.766 0-1.388.448-1.388 1s.622 1 1.388 1h3.222c.768 0 1.39-.448 1.39-1s-.622-1-1.39-1M96 17c-.552 0-1 .622-1 1.389v3.222c0 .768.448 1.389 1 1.389s1-.62 1-1.389V18.39c0-.767-.448-1.389-1-1.389M101.61 24h-3.222c-.766 0-1.388.447-1.388 1 0 .553.622 1 1.388 1h3.223c.765 0 1.389-.447 1.389-1 0-.553-.624-1-1.39-1M280.286 13h29.428c.71 0 1.286-.447 1.286-1 0-.553-.577-1-1.286-1h-29.428c-.71 0-1.286.447-1.286 1 0 .553.577 1 1.286 1M318.238 13h5.523c.685 0 1.239-.448 1.239-1s-.554-1-1.24-1h-5.522c-.684 0-1.238.448-1.238 1s.554 1 1.238 1M316 3c0-.552.576-1 1.286-1h6.428c.71 0 1.286.448 1.286 1s-.576 1-1.286 1h-6.428c-.71 0-1.286-.448-1.286-1zm-13 0c0-.552.574-1 1.285-1h6.43c.709 0 1.285.448 1.285 1s-.576 1-1.285 1h-6.43c-.71 0-1.285-.448-1.285-1zm-10 0c0-.552.552-1 1.234-1h3.532c.682 0 1.234.448 1.234 1s-.552 1-1.234 1h-3.532C293.552 4 293 3.552 293 3zM498 49c.552 0 1-.62 1-1.388v-3.224c0-.766-.448-1.388-1-1.388s-1 .622-1 1.388v3.224c0 .767.448 1.388 1 1.388M501.39 52h3.222c.766 0 1.388-.448 1.388-1 0-.553-.622-1-1.388-1h-3.222c-.768 0-1.39.447-1.39 1 0 .552.622 1 1.39 1M498 58c.552 0 1-.62 1-1.39v-3.22c0-.768-.448-1.39-1-1.39s-1 .622-1 1.39v3.22c0 .77.448 1.39 1 1.39M491.39 52h3.222c.766 0 1.388-.448 1.388-1s-.622-1-1.388-1h-3.222c-.768 0-1.39.448-1.39 1s.622 1 1.39 1M33.288 96h29.426c.71 0 1.286-.448 1.286-1s-.575-1-1.286-1H33.288c-.711 0-1.288.448-1.288 1s.577 1 1.288 1M19.238 96h5.526c.682 0 1.236-.447 1.236-1 0-.553-.554-1-1.236-1h-5.526c-.684 0-1.238.447-1.238 1 0 .553.554 1 1.238 1M486.137 155s.563 4.154-4.137 4.058c0 0 4.04.043 3.932 3.942 0 0 .362-3.068 4.068-3.752 0 0-3.132.74-3.863-4.248M250.137 0S250.7 4.154 246 4.058c0 0 4.04.043 3.932 3.942 0 0 .362-3.068 4.068-3.754 0 0-3.132.742-3.863-4.246M12.137 153s.563 4.154-4.137 4.06c0 0 4.04.041 3.93 3.94 0 0 .364-3.068 4.07-3.752 0 0-3.132.741-3.863-4.248M54 321c0 1.102.897 2 2.001 2 1.102 0 1.999-.898 1.999-2 0-1.104-.897-2-1.999-2-1.104 0-2.001.896-2.001 2zm-2 0c0-2.205 1.795-4 4-4 2.207 0 4 1.795 4 4s-1.793 4-4 4c-2.205 0-4-1.795-4-4zM414 239c0 1.104.896 2 2 2s2-.896 2-2c0-1.102-.896-2-2-2s-2 .898-2 2zm-2 0c0-2.206 1.795-4 4-4 2.207 0 4 1.794 4 4 0 2.205-1.793 4-4 4-2.205 0-4-1.795-4-4zM286 365.001c0 1.102.897 1.999 2.001 1.999 1.102 0 1.999-.897 1.999-1.999 0-1.104-.897-2.001-1.999-2.001-1.104 0-2.001.897-2.001 2.001zm-2 0c0-2.206 1.795-4.001 4-4.001s4 1.795 4 4.001c0 2.204-1.795 3.999-4 3.999s-4-1.795-4-3.999zM219 81c0 1.102.897 2 2 2 1.101 0 2-.898 2-2 0-1.104-.899-2-2-2-1.103 0-2 .896-2 2zm-2 0c0-2.205 1.795-4 4.001-4 2.205 0 3.999 1.795 3.999 4s-1.794 4-3.999 4c-2.206 0-4.001-1.795-4.001-4zM365.072 61h-4.144c-.513 0-.928.448-.928 1s.415 1 .928 1h4.144c.513 0 .928-.448.928-1s-.415-1-.928-1M395.953 61h-23.908c-.577 0-1.045.447-1.045 1 0 .552.468 1 1.045 1h23.908c.578 0 1.047-.448 1.047-1 0-.553-.47-1-1.047-1M366 69c0 .553-.45 1-1 1h-5.002c-.55 0-.998-.447-.998-1 0-.553.447-1 .998-1h5.001c.551 0 1.001.447 1.001 1zm11 0c0 .553-.448 1-1 1h-5c-.552 0-1-.447-1-1 0-.553.448-1 1-1h5c.552 0 1 .447 1 1zm8 0c0 .553-.46 1-1.028 1h-2.942c-.569 0-1.03-.447-1.03-1 0-.553.461-1 1.03-1h2.942c.568 0 1.028.447 1.028 1zM76 282c-.551 0-1 .415-1 .925v2.148c0 .513.449.927 1 .927.553 0 1-.414 1-.927v-2.148c0-.51-.447-.925-1-.925M73.073 280h-2.146c-.513 0-.927.447-.927 1 0 .552.414 1 .927 1h2.146c.512 0 .927-.448.927-1 0-.553-.415-1-.927-1M76 275c-.551 0-1 .415-1 .927v2.147c0 .512.449.926 1 .926.553 0 1-.414 1-.926v-2.147c0-.512-.447-.927-1-.927M81.074 279h-2.148c-.512 0-.926.447-.926 1 0 .552.414 1 .926 1h2.148c.512 0 .926-.448.926-1 0-.553-.414-1-.926-1M397.999 202c-.552 0-.999.414-.999.925v2.15c0 .511.447.925.999.925.554 0 1.001-.414 1.001-.925v-2.15c0-.511-.447-.925-1.001-.925M395.074 199h-2.148c-.512 0-.926.447-.926 1 0 .553.414 1 .926 1h2.148c.512 0 .926-.447.926-1 0-.553-.414-1-.926-1M397.999 194c-.552 0-.999.414-.999.926v2.148c0 .512.447.926.999.926.554 0 1.001-.414 1.001-.926v-2.148c0-.512-.447-.926-1.001-.926M403.073 199h-2.146c-.513 0-.927.448-.927 1 0 .553.414 1 .927 1h2.146c.512 0 .927-.447.927-1 0-.552-.415-1-.927-1M269 101c-.553 0-1 .414-1 .925v2.148c0 .513.447.927 1 .927.553 0 1-.414 1-.927v-2.148c0-.511-.447-.925-1-.925M266.074 99h-2.147c-.513 0-.927.447-.927 1 0 .553.414 1 .927 1h2.147c.51 0 .926-.447.926-1 0-.553-.415-1-.926-1M269 94c-.553 0-1 .414-1 .926v2.147c0 .513.447.927 1 .927.553 0 1-.414 1-.927v-2.147c0-.512-.447-.926-1-.926M274.074 98h-2.148c-.51 0-.926.447-.926 1 0 .552.415 1 .926 1h2.148c.512 0 .926-.448.926-1 0-.553-.414-1-.926-1M339.999 330c-.552 0-.999.414-.999.925v2.148c0 .513.447.927.999.927.554 0 1.001-.414 1.001-.927v-2.148c0-.511-.447-.925-1.001-.925M337.074 327h-2.148c-.512 0-.926.446-.926 1 0 .553.414 1 .926 1h2.148c.512 0 .926-.447.926-1 0-.554-.414-1-.926-1M339.999 322c-.552 0-.999.415-.999.927v2.146c0 .513.447.927.999.927.554 0 1.001-.414 1.001-.927v-2.146c0-.512-.447-.927-1.001-.927M345.074 327h-2.148c-.512 0-.926.447-.926 1 0 .553.414 1 .926 1h2.148c.51 0 .926-.447.926-1 0-.553-.415-1-.926-1M397.045 296h23.91c.577 0 1.045-.448 1.045-1 0-.553-.468-1-1.045-1h-23.91c-.577 0-1.045.447-1.045 1 0 .552.468 1 1.045 1M384.929 296h4.145c.511 0 .926-.447.926-1 0-.553-.415-1-.926-1h-4.145c-.513 0-.929.447-.929 1 0 .553.416 1 .929 1M82.047 398h23.908c.576 0 1.045-.448 1.045-1 0-.553-.47-1-1.045-1H82.047c-.578 0-1.047.447-1.047 1 0 .552.47 1 1.047 1M69.929 398h4.145c.511 0 .926-.447.926-1 0-.553-.415-1-.926-1h-4.145c-.513 0-.929.447-.929 1 0 .553.416 1 .929 1M350 354c-.552 0-1 .622-1 1.39v3.22c0 .768.448 1.39 1 1.39s1-.622 1-1.39v-3.22c0-.768-.448-1.39-1-1.39M346.61 351h-3.222c-.766 0-1.388.448-1.388 1s.622 1 1.388 1h3.222c.768 0 1.39-.448 1.39-1s-.622-1-1.39-1M350 345c-.552 0-1 .622-1 1.39v3.222c0 .767.448 1.388 1 1.388s1-.62 1-1.388v-3.222c0-.768-.448-1.39-1-1.39M356.612 351h-3.224c-.766 0-1.388.447-1.388 1 0 .553.622 1 1.388 1h3.224c.766 0 1.388-.447 1.388-1 0-.553-.622-1-1.388-1" transform="translate(-445 -529) translate(447 529)"/>
            </g>
        </g>
    </g>
</svg>
