<svg xmlns="http://www.w3.org/2000/svg" width="24" height="16" viewBox="0 0 24 16">
    <g fill="none" fill-rule="evenodd">
        <g fill="#A8A8A8" fill-rule="nonzero">
            <g>
                <g>
                    <path d="M16 8.099L24 12.8 24 3.2zM0 3.2L0 12.8 8 8.099zM22.54 0H1.46C.71 0 .113.536 0 1.227L12 8.8l12-7.573C23.887.537 23.29 0 22.54 0zM14.545 8.801l-2.13 1.394c-.127.082-.27.123-.415.123-.145 0-.288-.04-.414-.123L9.455 8.8 0 14.738C.116 15.448.71 16 1.458 16h21.084c.749 0 1.342-.552 1.458-1.262L14.545 8.8z" transform="translate(-373 -2334) translate(360 2321) translate(13 13)"/>
                </g>
            </g>
        </g>
    </g>
</svg>
