<svg xmlns="http://www.w3.org/2000/svg" width="38" height="38" viewBox="0 0 38 38">
    <g fill="none" fill-rule="evenodd">
        <g fill="#8A8A96" fill-rule="nonzero">
            <path d="M959 1856c-10.471 0-19 8.487-19 19s8.529 19 19 19 19-8.487 19-19-8.529-19-19-19zm-9.711 9.711h8.444v8.022h-8.444v-8.022zM959 1884.91h-9.5v-1h9.5v1zm9.5-3.547h-19v-1h19v1zm0-3.589h-19v-1h19v1zm0-3.546h-8.698v-1h8.698v1zm0-3.59h-8.698v-1h8.698v1zm0-3.968h-8.698v-1h8.698v1z" transform="translate(-940 -1856)"/>
        </g>
    </g>
</svg>
