<?xml version="1.0" encoding="utf-8"?>
<!-- Generator: Adobe Illustrator 21.0.0, SVG Export Plug-In . SVG Version: 6.00 Build 0)  -->
<svg version="1.1" id="Layer_1" xmlns="http://www.w3.org/2000/svg" xmlns:xlink="http://www.w3.org/1999/xlink" x="0px" y="0px"
	 viewBox="0 0 38 38" style="enable-background:new 0 0 38 38;" xml:space="preserve">
<style type="text/css">
	.st0{fill:#FFFFFF;}
</style>
<g>
	<g>
		<path class="st0" d="M19,0C8.5,0,0,8.5,0,19s8.5,19,19,19s19-8.5,19-19S29.5,0,19,0z M9.3,9.7h8.4v8H9.3L9.3,9.7L9.3,9.7z
			 M19,28.9H9.5v-1H19V28.9z M28.5,25.4h-19v-1h19V25.4z M28.5,21.8h-19v-1h19V21.8z M28.5,18.2h-8.7v-1h8.7V18.2z M28.5,14.6h-8.7
			v-1h8.7V14.6z M28.5,10.7h-8.7v-1h8.7V10.7z"/>
	</g>
</g>
</svg>
