<svg xmlns="http://www.w3.org/2000/svg" width="54" height="54" viewBox="0 0 54 54">
    <g fill="none" fill-rule="evenodd">
        <g fill-rule="nonzero">
            <g>
                <path fill="#8A8A96" d="M0 26.922C-.048 11.928 12.55-.39 27.745.01 41.785.387 54.06 11.971 54 27.122 53.945 42.022 41.812 54.055 26.9 54 11.99 53.945-.055 41.822 0 26.922z" opacity=".499" transform="translate(-363 -2037) translate(363 2037)"/>
                <path fill="#F5F5F5" d="M27.607 5.008c11.44.307 21.441 9.746 21.393 22.091-.045 12.14-9.931 21.946-22.081 21.9C14.769 48.956 4.955 39.078 5 26.938 4.96 14.719 15.226 4.682 27.607 5.007zm-6.575 13.4c-.043 5.382-.043 10.764 0 16.146 0 1.315.866 1.82 1.948 1.151 4.392-2.67 8.767-5.37 13.124-8.1.32-.214.51-.678.896-1.16h-.004c-.282-.411-.612-.783-.983-1.106-4.328-2.7-8.671-5.378-13.028-8.036-1.087-.669-1.953-.2-1.953 1.106z" transform="translate(-363 -2037) translate(363 2037)"/>
            </g>
        </g>
    </g>
</svg>
