<svg xmlns="http://www.w3.org/2000/svg" width="19" height="19" viewBox="0 0 19 19">
    <g fill="none" fill-rule="evenodd">
        <g fill="#A8A8A8" fill-rule="nonzero">
            <path d="M745.943 306.264c.935-1.277 1.494-2.845 1.494-4.545 0-4.256-3.462-7.719-7.718-7.719S732 297.463 732 301.719s3.463 7.719 7.719 7.719c1.7 0 3.268-.56 4.545-1.495l5.057 5.057 1.679-1.68-5.057-5.056zm-6.224.799c-2.947 0-5.344-2.397-5.344-5.344 0-2.947 2.397-5.344 5.344-5.344 2.946 0 5.343 2.397 5.343 5.344 0 2.947-2.397 5.344-5.343 5.344z" transform="translate(-732 -294)"/>
        </g>
    </g>
</svg>
