<svg xmlns="http://www.w3.org/2000/svg" xmlns:xlink="http://www.w3.org/1999/xlink" width="100" height="100" viewBox="0 0 100 100">
  <defs>
    <clipPath id="clip-path">
      <rect id="Rectangle_92" data-name="Rectangle 92" width="40.931" height="50.377" fill="#474747"/>
    </clipPath>
  </defs>
  <g id="Group_564" data-name="Group 564" transform="translate(-930 -1035)">
    <g id="Ellipse_46" data-name="Ellipse 46" transform="translate(930 1035)" fill="#fff" stroke="#474747" stroke-width="5">
      <circle cx="50" cy="50" r="50" stroke="none"/>
      <circle cx="50" cy="50" r="47.5" fill="none"/>
    </g>
    <g id="Group_375" data-name="Group 375" transform="translate(961.5 1059.951)">
      <g id="Group_254" data-name="Group 254" clip-path="url(#clip-path)">
        <path id="Path_177" data-name="Path 177" d="M40.475,9.9,31.029.457A1.573,1.573,0,0,0,29.911,0H4.723A4.723,4.723,0,0,0,0,4.723V45.654a4.723,4.723,0,0,0,4.723,4.723H36.208a4.723,4.723,0,0,0,4.723-4.723V11.02A1.573,1.573,0,0,0,40.475,9.9M37.783,45.654a1.575,1.575,0,0,1-1.574,1.574H4.723a1.575,1.575,0,0,1-1.574-1.574V4.723A1.575,1.575,0,0,1,4.723,3.149H28.337v6.3a3.148,3.148,0,0,0,3.149,3.149h6.3Z" transform="translate(0 0)" fill="#474747"/>
        <rect id="Rectangle_90" data-name="Rectangle 90" width="28.337" height="3.149" transform="translate(6.297 31.486)" fill="#474747"/>
        <rect id="Rectangle_91" data-name="Rectangle 91" width="28.337" height="3.149" transform="translate(6.297 39.357)" fill="#474747"/>
        <path id="Path_178" data-name="Path 178" d="M4,12.574v6.3a1.575,1.575,0,0,0,1.574,1.574H30.763a1.575,1.575,0,0,0,1.574-1.574v-6.3A1.575,1.575,0,0,0,30.763,11H5.574A1.575,1.575,0,0,0,4,12.574m3.149,1.574h22.04V17.3H7.149Z" transform="translate(2.297 6.317)" fill="#474747"/>
      </g>
    </g>
  </g>
</svg>
