<svg xmlns="http://www.w3.org/2000/svg" width="38" height="38" viewBox="0 0 38 38">
    <g fill="none" fill-rule="evenodd">
        <g fill="#FFF" fill-rule="nonzero">
            <path d="M461 1874.945c-.034-10.551 8.831-19.22 19.524-18.938 9.88.265 18.517 8.417 18.476 19.079-.04 10.484-8.577 18.953-19.07 18.914-10.494-.04-18.969-8.57-18.93-19.055zm27.996.009c-.246-.346-.535-.66-.86-.932-3.787-2.273-7.587-4.529-11.4-6.767-.95-.563-1.708-.168-1.708.931-.037 4.532-.037 9.064 0 13.596 0 1.108.758 1.533 1.705.97 3.843-2.248 7.67-4.522 11.483-6.821.28-.18.447-.571.784-.977h-.004z" transform="translate(-461 -1856)"/>
        </g>
    </g>
</svg>
