<?xml version="1.0" encoding="utf-8"?>
<!-- Generator: Adobe Illustrator 21.0.0, SVG Export Plug-In . SVG Version: 6.00 Build 0)  -->
<svg version="1.1" id="Layer_1" xmlns="http://www.w3.org/2000/svg" xmlns:xlink="http://www.w3.org/1999/xlink" x="0px" y="0px"
	 viewBox="0 0 38 38" style="enable-background:new 0 0 38 38;" xml:space="preserve">
<style type="text/css">
	.st0{fill:#8A8A96;}
</style>
<g>
	<g>
		<path class="st0" d="M0,18.9C0,8.4,8.8-0.3,19.5,0C29.4,0.3,38,8.4,38,19.1c0,10.5-8.6,19-19.1,18.9C8.4,38,0,29.4,0,18.9L0,18.9z
			 M28,19c-0.2-0.3-0.5-0.7-0.9-0.9c-3.8-2.3-7.6-4.5-11.4-6.8c-1-0.6-1.7-0.2-1.7,0.9c0,4.5,0,9.1,0,13.6c0,1.1,0.8,1.5,1.7,1
			c3.8-2.2,7.7-4.5,11.5-6.8C27.5,19.8,27.7,19.4,28,19L28,19L28,19z"/>
	</g>
</g>
</svg>
